<svg width="531" height="92" viewBox="0 0 531 92" fill="none" xmlns="http://www.w3.org/2000/svg"><path fill-rule="evenodd" clip-rule="evenodd" d="M43.25 14.374c1.646.015 3.284.227 4.88.63l2.5-13.88A37 37 0 0041 .005c-8.25 0-14.61 2.99-18.87 7.12-4.26 4.13-6.51 10-6.51 19.76v2.5H0v13.75h15.62v46.88h16.26v-46.88h18.75v-13.75H31.88v-1.88c0-5.63.87-7.88 2.25-9.63 2-2.37 5.12-3.5 9.12-3.5zm117.4 75.64h-15.62v-4.87a25.38 25.38 0 01-16.88 6.12 30.484 30.484 0 01-22.88-10.25 32.538 32.538 0 01-7.75-21.26c0-17.88 13.25-31.63 29.75-31.63a27.84 27.84 0 0117.76 6.12v-4.86h15.62v60.63zm-16.25-39.38a18.655 18.655 0 00-15-7.5c-9.5 0-15.63 7.88-15.63 16.63 0 9.5 6.88 16.5 16 16.5a17.752 17.752 0 0014.63-7.5v-18.13zm29.469-21.25v60.63h16.26v-39.38a19.366 19.366 0 0114.75-7.5 12.78 12.78 0 019.13 3.38c2.25 2.25 3.62 5.37 3.62 11.37v32.13h16.26v-30.88c0-10.37-2.26-16.5-6.26-21.25a27.31 27.31 0 00-21-9.75 26.76 26.76 0 00-17.13 6.12v-4.87h-15.63zm164.83 61.88c9.38 0 19-3.87 24.88-10.87l-9.2-9.26c-2.88 3.12-8.38 7-15.25 7-8.63 0-15.51-5.88-16.38-14.38h42a26.66 26.66 0 00.33-4.62c0-16.88-11.88-31-28.63-31-18 0-29.51 14.75-29.51 31.63 0 19 13.63 31.5 31.76 31.5zm5.766-46.97a12.09 12.09 0 013.984 7.59h-25c.75-5.5 6.25-10.63 13-10.63 2.954 0 5.805 1.082 8.016 3.04zm-68.744 46.97c11.37 0 20.38-4.12 27.5-13.62l-12.5-9.39a17.787 17.787 0 01-14.5 8c-9.88 0-16.76-7-16.76-16.5a16.266 16.266 0 0110.036-15.383 16.262 16.262 0 016.344-1.236 17.556 17.556 0 0114 7.25l11.51-10.13a32.367 32.367 0 00-25.51-12.12c-18.5 0-32.63 14.13-32.63 31.63s13.75 31.5 32.51 31.5zm-180.7-47.51a22.9 22.9 0 00-5.88-.62c-7.13 0-12.75 5.13-14.75 8.75v38.13H58.13v-60.63h15.62v6.12c3.63-4.5 10.26-7.37 17.63-7.37a33.06 33.06 0 015.5.5l-1.86 15.12z" fill="#fff"/><path d="M530.41 29.384h-16.88l-16.63 37-16.63-37h-30.52v-16.88h-16.29v16.88h-15.62v13.75h15.62v21.25c0 8.63 1.38 14 4.5 18.13 4.13 5.5 11.26 8.75 21 8.75 3.416.017 6.82-.403 10.13-1.25l-2.5-13.75a39.702 39.702 0 01-6.63.63c-4 0-6.63-1.13-8.25-3-1.38-1.63-2-3.88-2-7.63v-23.13h20l21.56 46.88h11.25l27.89-60.63z" fill="url(#paint0_radial_10145_61858)"/><path d="M396.999 76.264c9.146 0 16.56-7.414 16.56-16.56 0-9.145-7.414-16.56-16.56-16.56-9.145 0-16.56 7.415-16.56 16.56 0 9.146 7.415 16.56 16.56 16.56z" fill="url(#paint1_radial_10145_61858)"/><path d="M480.27 29.384h-30.52v-16.88h-16.29v16.88h-15.62v13.75h15.62v21.25c0 8.63 1.38 14 4.5 18.13 4.13 5.5 11.26 8.75 21 8.75 3.416.017 6.82-.403 10.13-1.25l-2.5-13.75a39.702 39.702 0 01-6.63.63c-4 0-6.63-1.13-8.25-3-1.38-1.63-2-3.88-2-7.63v-23.13h20l21.56 46.88h1.16a99.297 99.297 0 004.45-23.64l-16.61-36.99z" fill="url(#paint2_radial_10145_61858)"/><path d="M433.46 29.384h-15.62v13.75h15.62v21.25c0 8.63 1.38 14 4.5 18.13l.36.44a47.388 47.388 0 00-4.86-53.57z" fill="url(#paint3_radial_10145_61858)"/><defs><radialGradient id="paint0_radial_10145_61858" cx="0" cy="0" r="1" gradientUnits="userSpaceOnUse" gradientTransform="rotate(180 198.495 29.847) scale(139.41)"><stop stop-color="#64C8D7"/><stop offset=".28" stop-color="#60C4D6"/><stop offset=".57" stop-color="#53B9D2"/><stop offset=".86" stop-color="#3FA7CC"/><stop offset="1" stop-color="#329BC8"/></radialGradient><radialGradient id="paint1_radial_10145_61858" cx="0" cy="0" r="1" gradientUnits="userSpaceOnUse" gradientTransform="translate(396.999 59.705) scale(47.42)"><stop stop-color="#FF503C"/><stop offset=".46" stop-color="#FF5447"/><stop offset="1" stop-color="#FF5A5A"/></radialGradient><radialGradient id="paint2_radial_10145_61858" cx="0" cy="0" r="1" gradientUnits="userSpaceOnUse" gradientTransform="rotate(180 198.495 29.847) scale(100.12)"><stop offset=".6" stop-color="#FFAA46"/><stop offset=".75" stop-color="#FDAB48"/><stop offset=".81" stop-color="#F6B04F"/><stop offset=".86" stop-color="#E9B85B"/><stop offset=".9" stop-color="#D8C36C"/><stop offset=".93" stop-color="#C1D182"/><stop offset=".96" stop-color="#A4E39D"/><stop offset=".99" stop-color="#83F8BD"/><stop offset="1" stop-color="#78FFC8"/></radialGradient><radialGradient id="paint3_radial_10145_61858" cx="0" cy="0" r="1" gradientUnits="userSpaceOnUse" gradientTransform="matrix(1260.46 0 0 2540.29 12731.4 6776.53)"><stop stop-color="#FF503C"/><stop offset=".46" stop-color="#FF5447"/><stop offset="1" stop-color="#FF5A5A"/></radialGradient></defs></svg>